# xmcd
#
# Track frame offsets: 
#        150
#        20817
#        39797
#        50637
#        63438
#        84742
#        97273
#        116002
#        131299
#        154307
#        170258
#
# Disc length: 2502 seconds
#
# Revision: 0
# Processed by: cddbd v1.5.2PL0 Copyright (c) Steve Scherf et al.
# Submitted via: ExactAudioCopy v1.0b4
#
DISCID=9209c40b
DTITLE=The Bluesmasters - The Bluesmasters Volume 3
DYEAR=2013
DGENRE=Blues Rock
TTITLE0=Loving Man
TTITLE1=Can't Let You Go
TTITLE2=Up The Line
TTITLE3=Colorado Boogie
TTITLE4=Suspicious
TTITLE5=Good Time Woman
TTITLE6=Baby What You Want Me To Do
TTITLE7=Come Back Baby
TTITLE8=One I Need
TTITLE9=Baby Hold On
TTITLE10=If You Miss Me Baby
EXTD=
EXTT0=
EXTT1=
EXTT2=
EXTT3=
EXTT4=
EXTT5=
EXTT6=
EXTT7=
EXTT8=
EXTT9=
EXTT10=
PLAYORDER=
